# Blender v2.74 (sub 0) OBJ File: ''
# www.blender.org
mtllib goal.mtl
o Shape
v -1.000000 3.000000 0.500000
v -1.000000 3.000000 -0.500000
v -1.000000 0.000000 0.500000
v -1.000000 0.000000 -0.500000
v -1.100000 3.000000 -0.500000
v -1.100000 3.000000 0.500000
v -1.100000 0.000000 -0.500000
v -1.100000 0.000000 0.500000
v 2.100000 3.000000 0.500000
v 2.100000 3.000000 -0.500000
v 2.100000 0.000000 0.500000
v 2.100000 0.000000 -0.500000
v 2.000000 3.000000 -0.500000
v 2.000000 3.000000 0.500000
v 2.000000 0.000000 -0.500000
v 2.000000 0.000000 0.500000
v 2.000000 3.000000 0.500000
v 2.000000 3.000000 -0.500000
v 2.000000 2.000000 0.500000
v 2.000000 2.000000 -0.500000
v -1.000000 3.000000 -0.500000
v -1.000000 3.000000 0.500000
v -1.000000 2.000000 -0.500000
v -1.000000 2.000000 0.500000
vt 0.000000 1.000000
vt 0.000000 0.000000
vt 1.000000 0.000000
vt 1.000000 1.000000
vn 1.000000 0.000000 0.000000
vn -1.000000 0.000000 0.000000
vn 0.000000 1.000000 0.000000
vn 0.000000 -1.000000 0.000000
vn 0.000000 0.000000 1.000000
vn 0.000000 0.000000 -1.000000
usemtl b0b0b0
s 1
f 1/1/1 3/2/1 4/3/1 2/4/1
f 5/1/2 7/2/2 8/3/2 6/4/2
f 5/1/3 6/2/3 1/3/3 2/4/3
f 8/1/4 7/2/4 4/3/4 3/4/4
f 6/1/5 8/2/5 3/3/5 1/4/5
f 2/1/6 4/2/6 7/3/6 5/4/6
f 9/1/1 11/2/1 12/3/1 10/4/1
f 13/1/2 15/2/2 16/3/2 14/4/2
f 13/1/3 14/2/3 9/3/3 10/4/3
f 16/1/4 15/2/4 12/3/4 11/4/4
f 14/1/5 16/2/5 11/3/5 9/4/5
f 10/1/6 12/2/6 15/3/6 13/4/6
f 17/1/1 19/2/1 20/3/1 18/4/1
f 21/1/2 23/2/2 24/3/2 22/4/2
f 21/1/3 22/2/3 17/3/3 18/4/3
f 24/1/4 23/2/4 20/3/4 19/4/4
f 22/1/5 24/2/5 19/3/5 17/4/5
f 18/1/6 20/2/6 23/3/6 21/4/6
o SquareBBL
v -0.500000 2.000000 0.510000
v -0.500000 2.500000 0.510000
v 0.000000 2.000000 0.510000
v 0.000000 2.500000 0.510000
vt 0.000000 1.000000
vt 0.000000 0.000000
vt 1.000000 0.000000
vt 1.000000 1.000000
vn 0.000000 0.000000 1.000000
usemtl 0
s 1
f 25/5/7 27/6/7 28/7/7 26/8/7
o SquareWTR
v 1.500000 2.500000 0.510000
v 1.500000 3.000000 0.510000
v 2.000000 2.500000 0.510000
v 2.000000 3.000000 0.510000
vt 0.000000 1.000000
vt 0.000000 0.000000
vt 1.000000 0.000000
vt 1.000000 1.000000
vn 0.000000 0.000000 1.000000
usemtl ffffff
s 1
f 29/9/8 31/10/8 32/11/8 30/12/8
o SquareBTR
v 1.000000 2.500000 0.510000
v 1.000000 3.000000 0.510000
v 1.500000 2.500000 0.510000
v 1.500000 3.000000 0.510000
vt 0.000000 1.000000
vt 0.000000 0.000000
vt 1.000000 0.000000
vt 1.000000 1.000000
vn 0.000000 0.000000 1.000000
usemtl 0
s 1
f 33/13/9 35/14/9 36/15/9 34/16/9
o SquareBBC
v 0.500000 2.000000 0.510000
v 0.500000 2.500000 0.510000
v 1.000000 2.000000 0.510000
v 1.000000 2.500000 0.510000
vt 0.000000 1.000000
vt 0.000000 0.000000
vt 1.000000 0.000000
vt 1.000000 1.000000
vn 0.000000 0.000000 1.000000
usemtl 0
s 1
f 37/17/10 39/18/10 40/19/10 38/20/10
o SquareWTC
v 0.500000 2.500000 0.510000
v 0.500000 3.000000 0.510000
v 1.000000 2.500000 0.510000
v 1.000000 3.000000 0.510000
vt 0.000000 1.000000
vt 0.000000 0.000000
vt 1.000000 0.000000
vt 1.000000 1.000000
vn 0.000000 0.000000 1.000000
usemtl ffffff
s 1
f 41/21/11 43/22/11 44/23/11 42/24/11
o SquareBTL
v -1.000000 2.500000 0.510000
v -1.000000 3.000000 0.510000
v -0.500000 2.500000 0.510000
v -0.500000 3.000000 0.510000
vt 0.000000 1.000000
vt 0.000000 0.000000
vt 1.000000 0.000000
vt 1.000000 1.000000
vn 0.000000 0.000000 1.000000
usemtl 0
s 1
f 45/25/12 47/26/12 48/27/12 46/28/12
o SquareBBR
v 1.500000 2.000000 0.510000
v 1.500000 2.500000 0.510000
v 2.000000 2.000000 0.510000
v 2.000000 2.500000 0.510000
vt 0.000000 1.000000
vt 0.000000 0.000000
vt 1.000000 0.000000
vt 1.000000 1.000000
vn 0.000000 0.000000 1.000000
usemtl 0
s 1
f 49/29/13 51/30/13 52/31/13 50/32/13
o SquareWTL
v -0.500000 2.500000 0.510000
v -0.500000 3.000000 0.510000
v 0.000000 2.500000 0.510000
v 0.000000 3.000000 0.510000
vt 0.000000 1.000000
vt 0.000000 0.000000
vt 1.000000 0.000000
vt 1.000000 1.000000
vn 0.000000 0.000000 1.000000
usemtl ffffff
s 1
f 53/33/14 55/34/14 56/35/14 54/36/14
o SquareWBC
v 0.000000 2.000000 0.510000
v 0.000000 2.500000 0.510000
v 0.500000 2.000000 0.510000
v 0.500000 2.500000 0.510000
vt 0.000000 1.000000
vt 0.000000 0.000000
vt 1.000000 0.000000
vt 1.000000 1.000000
vn 0.000000 0.000000 1.000000
usemtl ffffff
s 1
f 57/37/15 59/38/15 60/39/15 58/40/15
o SquareWBL
v -1.000000 2.000000 0.510000
v -1.000000 2.500000 0.510000
v -0.500000 2.000000 0.510000
v -0.500000 2.500000 0.510000
vt 0.000000 1.000000
vt 0.000000 0.000000
vt 1.000000 0.000000
vt 1.000000 1.000000
vn 0.000000 0.000000 1.000000
usemtl ffffff
s 1
f 61/41/16 63/42/16 64/43/16 62/44/16
o SquareBTC
v 0.000000 2.500000 0.510000
v 0.000000 3.000000 0.510000
v 0.500000 2.500000 0.510000
v 0.500000 3.000000 0.510000
vt 0.000000 1.000000
vt 0.000000 0.000000
vt 1.000000 0.000000
vt 1.000000 1.000000
vn 0.000000 0.000000 1.000000
usemtl 0
s 1
f 65/45/17 67/46/17 68/47/17 66/48/17
o SquareWBR
v 1.000000 2.000000 0.510000
v 1.000000 2.500000 0.510000
v 1.500000 2.000000 0.510000
v 1.500000 2.500000 0.510000
vt 0.000000 1.000000
vt 0.000000 0.000000
vt 1.000000 0.000000
vt 1.000000 1.000000
vn 0.000000 0.000000 1.000000
usemtl ffffff
s 1
f 69/49/18 71/50/18 72/51/18 70/52/18
